<svg width="51" height="50" viewBox="0 0 51 50" fill="none" xmlns="http://www.w3.org/2000/svg">
<path d="M13.6237 39.2852V37.8566C13.6237 32.3337 18.1009 27.8566 23.6237 27.8566H26.5691C32.0919 27.8566 36.5691 32.3337 36.5691 37.8566V39.2852" stroke="#A9242B" stroke-width="1.5"/>
<path d="M29.9107 17.0567C29.9107 20.1429 27.3985 22.6496 24.2934 22.6496C21.1883 22.6496 18.676 20.1429 18.676 17.0567C18.676 13.9706 21.1883 11.4639 24.2934 11.4639C27.3985 11.4639 29.9107 13.9706 29.9107 17.0567Z" stroke="#A9242B" stroke-width="1.5"/>
<path d="M49.4431 25C49.4431 38.3902 38.5455 49.25 25.0965 49.25C11.6476 49.25 0.75 38.3902 0.75 25C0.75 11.6098 11.6476 0.75 25.0965 0.75C38.5455 0.75 49.4431 11.6098 49.4431 25Z" stroke="#A9242B" stroke-width="1.5"/>
</svg>
