<svg width="1253" height="327" viewBox="0 0 1253 327" fill="none" xmlns="http://www.w3.org/2000/svg">
<path d="M144.659 137H127.045C126.004 131.934 124.181 127.483 121.577 123.648C119.02 119.812 115.895 116.593 112.202 113.989C108.556 111.337 104.508 109.348 100.057 108.023C95.6061 106.697 90.9659 106.034 86.1364 106.034C77.3295 106.034 69.3513 108.259 62.2017 112.71C55.0994 117.161 49.4413 123.719 45.2273 132.384C41.0606 141.048 38.9773 151.678 38.9773 164.273C38.9773 176.867 41.0606 187.497 45.2273 196.162C49.4413 204.827 55.0994 211.384 62.2017 215.835C69.3513 220.286 77.3295 222.511 86.1364 222.511C90.9659 222.511 95.6061 221.848 100.057 220.523C104.508 219.197 108.556 217.232 112.202 214.628C115.895 211.976 119.02 208.733 121.577 204.898C124.181 201.015 126.004 196.564 127.045 191.545H144.659C143.333 198.979 140.919 205.632 137.415 211.503C133.911 217.374 129.555 222.369 124.347 226.489C119.138 230.561 113.291 233.662 106.804 235.793C100.365 237.923 93.4754 238.989 86.1364 238.989C73.7311 238.989 62.6989 235.958 53.0398 229.898C43.3807 223.837 35.7813 215.22 30.2415 204.045C24.7017 192.871 21.9318 179.614 21.9318 164.273C21.9318 148.932 24.7017 135.674 30.2415 124.5C35.7813 113.326 43.3807 104.708 53.0398 98.6477C62.6989 92.5871 73.7311 89.5568 86.1364 89.5568C93.4754 89.5568 100.365 90.6222 106.804 92.7528C113.291 94.8835 119.138 98.0085 124.347 102.128C129.555 106.2 133.911 111.171 137.415 117.043C140.919 122.866 143.333 129.519 144.659 137ZM295.849 164.273C295.849 179.614 293.079 192.871 287.539 204.045C281.999 215.22 274.4 223.837 264.741 229.898C255.082 235.958 244.049 238.989 231.644 238.989C219.239 238.989 208.207 235.958 198.548 229.898C188.888 223.837 181.289 215.22 175.749 204.045C170.21 192.871 167.44 179.614 167.44 164.273C167.44 148.932 170.21 135.674 175.749 124.5C181.289 113.326 188.888 104.708 198.548 98.6477C208.207 92.5871 219.239 89.5568 231.644 89.5568C244.049 89.5568 255.082 92.5871 264.741 98.6477C274.4 104.708 281.999 113.326 287.539 124.5C293.079 135.674 295.849 148.932 295.849 164.273ZM278.803 164.273C278.803 151.678 276.696 141.048 272.482 132.384C268.316 123.719 262.657 117.161 255.508 112.71C248.406 108.259 240.451 106.034 231.644 106.034C222.837 106.034 214.859 108.259 207.71 112.71C200.607 117.161 194.949 123.719 190.735 132.384C186.568 141.048 184.485 151.678 184.485 164.273C184.485 176.867 186.568 187.497 190.735 196.162C194.949 204.827 200.607 211.384 207.71 215.835C214.859 220.286 222.837 222.511 231.644 222.511C240.451 222.511 248.406 220.286 255.508 215.835C262.657 211.384 268.316 204.827 272.482 196.162C276.696 187.497 278.803 176.867 278.803 164.273ZM325.465 91.5455H346.488L395.92 212.284H397.624L447.056 91.5455H468.079V237H451.602V126.489H450.181L404.727 237H388.817L343.363 126.489H341.942V237H325.465V91.5455ZM503.395 237V91.5455H552.543C563.954 91.5455 573.281 93.6051 580.526 97.7244C587.817 101.796 593.215 107.312 596.719 114.273C600.223 121.233 601.974 128.998 601.974 137.568C601.974 146.138 600.223 153.927 596.719 160.935C593.262 167.942 587.912 173.529 580.668 177.696C573.423 181.815 564.143 183.875 552.827 183.875H517.599V168.25H552.259C560.071 168.25 566.345 166.901 571.08 164.202C575.814 161.503 579.247 157.857 581.378 153.264C583.556 148.624 584.645 143.392 584.645 137.568C584.645 131.744 583.556 126.536 581.378 121.943C579.247 117.35 575.791 113.752 571.009 111.148C566.226 108.496 559.882 107.17 551.974 107.17H521.009V237H503.395ZM630.348 237V91.5455H647.962V221.375H715.575V237H630.348ZM742.848 237V91.5455H830.632V107.17H760.462V156.318H826.087V171.943H760.462V221.375H831.768V237H742.848ZM854.425 107.17V91.5455H963.516V107.17H917.777V237H900.163V107.17H854.425ZM990.7 237V91.5455H1078.48V107.17H1008.31V156.318H1073.94V171.943H1008.31V221.375H1079.62V237H990.7ZM1155.12 237H1110.23V91.5455H1157.11C1171.22 91.5455 1183.29 94.4574 1193.33 100.281C1203.37 106.058 1211.06 114.367 1216.41 125.21C1221.76 136.006 1224.44 148.932 1224.44 163.989C1224.44 179.14 1221.74 192.185 1216.34 203.122C1210.94 214.012 1203.08 222.393 1192.76 228.264C1182.44 234.088 1169.89 237 1155.12 237ZM1127.84 221.375H1153.98C1166.01 221.375 1175.97 219.055 1183.88 214.415C1191.79 209.775 1197.68 203.17 1201.57 194.599C1205.45 186.029 1207.39 175.826 1207.39 163.989C1207.39 152.246 1205.47 142.137 1201.64 133.662C1197.8 125.139 1192.07 118.605 1184.45 114.06C1176.83 109.467 1167.33 107.17 1155.97 107.17H1127.84V221.375Z" fill="#378B42"/>
</svg>
