<svg width="1078" height="327" viewBox="0 0 1078 327" fill="none" xmlns="http://www.w3.org/2000/svg">
<path d="M29.3182 237V91.5455H113.693V103.477H42.5994V158.236H109.219V170.168H42.5994V225.068H115.114V237H29.3182ZM150.341 91.5455L190.611 154.685H191.534L231.804 91.5455H247.5L200.696 164.273L247.5 237H231.804L191.534 174.571H190.611L150.341 237H134.645L182.159 164.273L134.645 91.5455H150.341ZM272.678 237V91.5455H357.053V103.477H285.959V158.236H352.578V170.168H285.959V225.068H358.473V237H272.678ZM391.428 237V91.5455H438.374C448.696 91.5455 457.313 93.4157 464.226 97.1562C471.186 100.849 476.418 105.987 479.922 112.568C483.473 119.102 485.249 126.607 485.249 135.082C485.249 143.558 483.473 151.039 479.922 157.526C476.418 164.012 471.21 169.079 464.297 172.724C457.384 176.37 448.814 178.193 438.587 178.193H398.601V166.048H438.232C445.807 166.048 452.105 164.794 457.124 162.284C462.19 159.775 465.954 156.2 468.416 151.56C470.926 146.92 472.18 141.427 472.18 135.082C472.18 128.738 470.926 123.198 468.416 118.463C465.907 113.681 462.119 109.988 457.053 107.384C452.034 104.779 445.689 103.477 438.018 103.477H404.709V237H391.428ZM455.561 171.375L491.357 237H476.016L440.575 171.375H455.561ZM631.52 137H618.168C617.173 132.028 615.374 127.436 612.77 123.222C610.213 118.96 606.993 115.243 603.111 112.071C599.228 108.899 594.825 106.437 589.901 104.685C584.976 102.933 579.65 102.057 573.92 102.057C564.735 102.057 556.354 104.448 548.778 109.23C541.25 114.012 535.213 121.044 530.668 130.324C526.17 139.557 523.92 150.873 523.92 164.273C523.92 177.767 526.17 189.131 530.668 198.364C535.213 207.597 541.25 214.604 548.778 219.386C556.354 224.121 564.735 226.489 573.92 226.489C579.65 226.489 584.976 225.613 589.901 223.861C594.825 222.109 599.228 219.67 603.111 216.545C606.993 213.373 610.213 209.656 612.77 205.395C615.374 201.134 617.173 196.517 618.168 191.545H631.52C630.336 198.222 628.111 204.448 624.844 210.224C621.624 215.954 617.505 220.973 612.486 225.281C607.514 229.59 601.785 232.952 595.298 235.366C588.812 237.781 581.686 238.989 573.92 238.989C561.705 238.989 550.862 235.935 541.392 229.827C531.922 223.671 524.489 215.007 519.091 203.832C513.741 192.658 511.065 179.472 511.065 164.273C511.065 149.074 513.741 135.887 519.091 124.713C524.489 113.539 531.922 104.898 541.392 98.7898C550.862 92.6345 561.705 89.5568 573.92 89.5568C581.686 89.5568 588.812 90.7642 595.298 93.179C601.785 95.5464 607.514 98.9081 612.486 103.264C617.505 107.573 621.624 112.592 624.844 118.321C628.111 124.05 630.336 130.277 631.52 137ZM675.998 91.5455V237H662.717V91.5455H675.998ZM793.647 127.909C792.842 119.812 789.267 113.373 782.923 108.591C776.578 103.809 768.6 101.418 758.988 101.418C752.217 101.418 746.251 102.578 741.09 104.898C735.977 107.218 731.952 110.437 729.016 114.557C726.128 118.629 724.684 123.269 724.684 128.477C724.684 132.312 725.513 135.674 727.17 138.562C728.827 141.451 731.052 143.937 733.846 146.02C736.687 148.056 739.812 149.808 743.221 151.276C746.677 152.743 750.157 153.974 753.661 154.969L769.002 159.372C773.642 160.651 778.282 162.284 782.923 164.273C787.563 166.261 791.8 168.771 795.636 171.801C799.518 174.784 802.62 178.454 804.94 182.81C807.307 187.118 808.491 192.303 808.491 198.364C808.491 206.129 806.478 213.113 802.454 219.315C798.429 225.518 792.653 230.442 785.124 234.088C777.596 237.687 768.576 239.486 758.065 239.486C748.169 239.486 739.575 237.852 732.283 234.585C724.992 231.271 719.263 226.702 715.096 220.878C710.929 215.054 708.585 208.307 708.065 200.636H721.701C722.174 206.366 724.068 211.219 727.383 215.196C730.697 219.173 735.006 222.204 740.309 224.287C745.612 226.323 751.531 227.341 758.065 227.341C765.309 227.341 771.748 226.134 777.383 223.719C783.065 221.257 787.515 217.848 790.735 213.491C794.002 209.088 795.636 203.974 795.636 198.151C795.636 193.226 794.357 189.107 791.8 185.793C789.244 182.431 785.669 179.614 781.076 177.341C776.531 175.068 771.251 173.056 765.238 171.304L747.837 166.19C736.426 162.781 727.572 158.07 721.275 152.057C714.978 146.044 711.829 138.373 711.829 129.045C711.829 121.233 713.912 114.367 718.079 108.449C722.293 102.483 727.975 97.8428 735.124 94.5284C742.321 91.1667 750.394 89.4858 759.343 89.4858C768.387 89.4858 776.388 91.143 783.349 94.4574C790.309 97.7718 795.825 102.341 799.897 108.165C804.016 113.941 806.218 120.523 806.502 127.909H793.647ZM840.451 237V91.5455H924.826V103.477H853.732V158.236H920.352V170.168H853.732V225.068H926.246V237H840.451ZM1038.18 127.909C1037.37 119.812 1033.8 113.373 1027.45 108.591C1021.11 103.809 1013.13 101.418 1003.52 101.418C996.748 101.418 990.782 102.578 985.621 104.898C980.508 107.218 976.483 110.437 973.548 114.557C970.659 118.629 969.215 123.269 969.215 128.477C969.215 132.312 970.044 135.674 971.701 138.562C973.358 141.451 975.584 143.937 978.377 146.02C981.218 148.056 984.343 149.808 987.752 151.276C991.209 152.743 994.689 153.974 998.192 154.969L1013.53 159.372C1018.17 160.651 1022.81 162.284 1027.45 164.273C1032.09 166.261 1036.33 168.771 1040.17 171.801C1044.05 174.784 1047.15 178.454 1049.47 182.81C1051.84 187.118 1053.02 192.303 1053.02 198.364C1053.02 206.129 1051.01 213.113 1046.99 219.315C1042.96 225.518 1037.18 230.442 1029.66 234.088C1022.13 237.687 1013.11 239.486 1002.6 239.486C992.7 239.486 984.106 237.852 976.815 234.585C969.523 231.271 963.794 226.702 959.627 220.878C955.46 215.054 953.117 208.307 952.596 200.636H966.232C966.706 206.366 968.6 211.219 971.914 215.196C975.228 219.173 979.537 222.204 984.84 224.287C990.143 226.323 996.062 227.341 1002.6 227.341C1009.84 227.341 1016.28 226.134 1021.91 223.719C1027.6 221.257 1032.05 217.848 1035.27 213.491C1038.53 209.088 1040.17 203.974 1040.17 198.151C1040.17 193.226 1038.89 189.107 1036.33 185.793C1033.77 182.431 1030.2 179.614 1025.61 177.341C1021.06 175.068 1015.78 173.056 1009.77 171.304L992.369 166.19C980.958 162.781 972.103 158.07 965.806 152.057C959.509 146.044 956.36 138.373 956.36 129.045C956.36 121.233 958.443 114.367 962.61 108.449C966.824 102.483 972.506 97.8428 979.656 94.5284C986.853 91.1667 994.925 89.4858 1003.87 89.4858C1012.92 89.4858 1020.92 91.143 1027.88 94.4574C1034.84 97.7718 1040.36 102.341 1044.43 108.165C1048.55 113.941 1050.75 120.523 1051.03 127.909H1038.18Z" fill="#0000FF"/>
</svg>
